<?xml version="1.0" encoding="UTF-8"?>
<svg version="1.1" viewBox="0 0 1236 1260" width="309" height="315" xmlns="http://www.w3.org/2000/svg">
<path transform="translate(0)" d="m0 0h1236v1260h-1236z" fill="#fff"/>
<path transform="translate(706,264)" d="m0 0h24l30 3 32 5 9 3 9 8 16 11 14 11 14 12 15 14 11 11 2 3v11l3 7 7 6 17 11 9 8 7 8 6 9 7 28 7 37 5 24-3 17-10 34-4 21-4 39-3 12-4 8-6 10-7 11-4 5-7 9-6 7-9 9h-2l-2 4-6 8-4 7-1 4 5-3 11-3 4-1 14 5 5 4 8 16 1 4v26l-5 24-5 16-6 16-9 17-8 11-9 10-11 10-15 8-7 2h-9l-12 22-13 20-12 16-15 16-16 16-8 7-10 8-16 11-18 11-23 12-21 8-24 7-25 5-22 2h-23l-37-3-17-3-9-2-16-4-18-6-20-9-20-12-10-7-11-9-10-10-7-8-12-17-8-13-14-27-12-26-10-26-13-37-8-16-10-16-7-10-5-8-6-14-4-13-3-17-1-12v-23l3-21 6-14 7-8 5-3 11-1 6 2 10 9 6 10 4 12 1 19-2 5h-6l-5-5-1-13-6-16-4-6-3-3h-5l-7 8-5 14v47l4 17 6 16 8 14 12 18 8 14 5 11 13 38 13 32 14 29 9 17 12 18 13 16 8 8 8 6 10 7 13 8 16 8 20 8 14 4 19 4 19 3 10 1h55l13-2 22-5 21-6 20-8 23-12 20-13 10-7 12-10 10-8 14-14 11-14 10-13 9-14 14-26 8-19 8-21 6-19 6-11h5l4 4v8l-4 11-12 34-3 6 9-4 10-6 9-7 9-11 7-11 8-16 7-21 6-29v-18l-4-12-4-4h-14l-6 4-9 17-1 17-4 8-6 5-6-1-4-4 1-7 2-5 1-9 2-4 1-7 1-21 3-9 2-16 4-13 5-12 10-19 6-12 3-10 1-4-5-6-9-39-4-12-3-12-2-4-47-2-3-4v-5l2-4v-13l-7-28-3-8-10 2-9 1-6 4h-7l-11 9-7 10-4 2-10-1h-15l-10-4-5-9-8-10-4-8-3-9-14 1-10 11v10l-5 3-15-3-8-6-14-6-1-2 1-11-7 6-9 2-16 15-8 9-5 1-5-5-1-8 6-24 3-11-19 2-1 9-4 4-6 3-3 2h-7l-2-3-3-13-18 2-13 3-13 2-2-1h-13l1 6-1 3-23 10-19 8-17 9-4 3-8 4-14 15-11 12-16 17-9 10-8 9-5 8h-2l-1 3 81 2 65 6 31 4 15 4 14 7 9 7 5 10 6-1 11 3 26 3h31v-2l12-5 17-3 10-1h26l25 2 36 6 49 11 10 1 11 3 15 3 8 4 4 6-1 5-6 8-7 10-2 3-5 29-4 15-7 16-9 14-12 17-9 10-9 6-10 3h-21l-26-3-31-6-16-6-13-9-11-9-9-9-9-16-6-15-5-27-1-41-8-3-10-2-10-1h-22l-14 5-2 3-2 18-5 19-4 9-6 12-6 9-13 16-10 9-12 7-11 4-5 1h-29l-22-4-30-7-16-6-8-6-7-7-9-13-8-17-5-17-4-26-4-38-2-9-4-2-3-4-1-9 1-4-6 1-1 13 3 14v31l-5 5-4 1-4-4-1-13-2-7-1-25-2-8-4-12-9-22-8-20v-8l5-11 3-21 1-10 1-26 4-17 8-19 6-9 7-7 9-11 13-14 9-11 12-13 9-11 9-10 5-6 21-14 14-9 9-1 2-1 8-1 15-7 26-8 9-2 16-1 16-2 106-5z" fill="#010101"/>
<path transform="translate(369,580)" d="m0 0h53l47 4 45 5 20 4 12 6 8 9 2 6v26l-3 17-5 15-9 17-10 13-9 10-10 7-12 5-5 1h-25l-17-3-31-7-15-5-6-4-9-10-8-13-6-15-3-12-1-7-2-26-2-12v-30z" fill="#fff"/>
<path transform="translate(685,612)" d="m0 0 29 1 33 4 35 7 28 7 15 6 11 7 1 4-5 35-5 20-8 16-12 19-11 14-6 5-8 3h-20l-30-4-25-5-13-5-9-6-13-11-8-9-8-16-4-13-4-22v-34l2-10 3-6 4-3 15-3z" fill="#fff"/>
<path transform="translate(444,624)" d="m0 0h15l9 5 6 7 2 5 1 6v11l-3 7-4 5-11 4-5 1h-7l-10-4-8-7-3-7v-8l3-10 8-11z" fill="#010101"/>
<path transform="translate(660,878)" d="m0 0 4 2v7l-6 5-24 13-12 6-14 5-16 3h-12l-19-3-13-5-11-7-8-8-4-9 1-4 3-3h5l8 12 13 8 7 3 21 3h9l17-4 19-8 14-8 14-7z" fill="#010101"/>
<path transform="translate(731,655)" d="m0 0h11l10 5 6 7 2 4v15l-4 9-8 7-7 3h-9l-8-4-7-8-3-7v-9l4-9 7-9z" fill="#010101"/>
<path transform="translate(594,704)" d="m0 0h9l1 5-2 8-7 19-7 28v15l4 7 8 11-1 4-4 3-6-2-7-7-6-10-1-4v-19l6-25 8-22z" fill="#010101"/>
<path transform="translate(462,520)" d="m0 0h23l12 3 10 5 2 3-1 6-2 2-6-1-13-4h-28l-16 4-11 7-8 5-5-1-3-3 1-5 9-8 11-7 17-5z" fill="#010101"/>
<path transform="translate(719,575)" d="m0 0h14l16 2 15 4 12 5 8 7-1 6-2 2-7-1-13-6-16-4-7-1-25-2-1-2v-6l3-3z" fill="#010101"/>
<path transform="translate(882,742)" d="m0 0 7 1 3 3v13l-4 13-6 10-4 2-7-1-4-6v-11l5-13 7-9z" fill="#010101"/>
<path transform="translate(310,693)" d="m0 0 7 1 6 4 5 10 1 11-3 5-2 2-11-1-5-3-3-7v-16z" fill="#010101"/>
</svg>
